<svg class="h-12" version="1.1" id="Layer_1" xmlns="http://www.w3.org/2000/svg" xmlns:xlink="http://www.w3.org/1999/xlink" x="0px" y="0px" viewBox="0 0 708.66 498.9" style="enable-background:new 0 0 708.66 498.9;" xml:space="preserve">
<style type="text/css">
	.st0{fill:#F6F6F6;stroke:#C01818;stroke-width:12;stroke-miterlimit:10;}
	.st1{fill:#C01818;}
	.st2{fill:#F6F6F6;}
</style>
<path class="st0" d="M594.07,487.08H114.63c-15.17,0-27.47-12.3-27.47-27.47V39.61c0-15.17,12.3-27.47,27.47-27.47h479.43
	c15.17,0,27.47,12.3,27.47,27.47v419.99C621.54,474.78,609.24,487.08,594.07,487.08z"></path>
<path class="st1" d="M199.24,219.22c-0.86,2.82,1.25,5.67,4.19,5.67h21.4v67.54l-106.28-44.09c-3.06-1.27-4.11-5.07-2.15-7.73
	L234.48,80.81c2.18-2.96,6.84-0.9,6.13,2.7L199.24,219.22z"></path>
<path class="st1" d="M509.46,219.22c0.86,2.82-1.25,5.67-4.19,5.67h-21.4v67.54l106.28-44.09c3.06-1.27,4.11-5.07,2.15-7.73
	L474.22,80.81c-2.18-2.96-6.84-0.9-6.13,2.7L509.46,219.22z"></path>
<path class="st1" d="M440.09,387.15H268.61c-15.17,0-27.47-12.3-27.47-27.47V213.39c0-15.17,12.3-27.47,27.47-27.47h171.48
	c15.17,0,27.47,12.3,27.47,27.47v146.29C467.56,374.85,455.26,387.15,440.09,387.15z"></path>
<g>
	<rect x="294.06" y="249.61" class="st2" width="22.77" height="51.85"></rect>
	<rect x="281.8" y="305.1" class="st2" width="58.26" height="18.2"></rect>
</g>
<g>
	<rect x="366.39" y="249.61" class="st2" width="58.26" height="18.2"></rect>
	<rect x="389.61" y="271.45" class="st2" width="22.77" height="51.85"></rect>
</g>
</svg>